<svg width="270" height="130" viewBox="0 0 270 130" fill="none" xmlns="http://www.w3.org/2000/svg">
<path d="M140.102 112.705C134.884 112.362 128.867 111.459 124.122 110.102C123.233 109.848 119.552 108.512 118.616 108.088C102.094 100.533 90.5841 84.0393 90.5841 64.9046C90.5841 38.6595 112.212 17.2819 138.814 17.2819C165.179 17.2819 186.661 38.2949 187.031 64.2432H204.454C204.085 28.8144 174.791 0.10173 138.814 0.10173C102.622 0.10173 73.1647 29.1664 73.1647 64.9046C73.1647 89.5427 87.1999 110.971 107.75 121.919C111.461 123.856 116.786 125.853 118.594 126.4C124.452 128.122 131.642 129.266 138.041 129.746C140.214 129.907 147.803 129.992 150.014 130H270V112.867H150.216C148.623 112.867 141.661 112.807 140.102 112.705ZM150.216 85.8031C148.949 85.8031 142.323 85.7607 141.099 85.659C139.024 85.4851 136.018 85.1799 134.085 84.7432C131.904 84.1665 129.855 83.4033 128.932 82.903C122.459 79.4475 118.049 72.6891 118.049 64.9046C118.049 53.5798 127.338 44.3961 138.814 44.3961C150.049 44.3961 159.184 53.2194 159.549 64.2432H176.289C175.937 44.1036 159.308 27.8732 138.814 27.8732C118.092 27.8732 101.295 44.4512 101.295 64.9046C101.295 79.3288 109.67 91.7857 121.867 97.8869C123.744 98.9723 127.274 100.109 128.279 100.367C131.723 101.262 136.349 101.872 140.102 102.144C141.489 102.258 148.284 102.309 149.718 102.318V102.343H269.996V85.8031H150.216ZM62.428 129.936H44.8884V17.32H19.2575V-1.52588e-05H62.428V129.936ZM0 25.9737V42.6281H19.2575V129.936H36.11V25.9737H0Z" fill="white"/>
</svg>
