<svg width="414" height="110" viewBox="0 0 414 110" fill="none" xmlns="http://www.w3.org/2000/svg">
<path fill-rule="evenodd" clip-rule="evenodd" d="M92.7254 85.4235C100.606 76.6926 106.525 65.1221 106.525 50.0832C106.525 36.4017 100.576 24.0153 90.9578 15.0487C81.34 6.0831 68.0539 0.536133 53.3784 0.536133C38.7032 0.536133 25.416 6.0821 15.7992 15.0487C6.18231 24.0153 0.232422 36.4017 0.232422 50.0832C0.232422 65.1221 6.15124 76.6926 14.0315 85.4235C29.5008 102.561 52.8578 108.699 53.3774 108.699C53.899 108.699 77.2563 102.561 92.7254 85.4235ZM53.3795 105.934C52.8986 105.934 31.1013 100.056 16.293 83.6517C8.81549 75.3672 3.19987 64.3811 3.19987 50.0832C3.19987 37.1657 8.81764 25.4695 17.8967 17.0043C26.9768 8.53898 39.5227 3.30263 53.3784 3.30263C67.2344 3.30263 79.779 8.53898 88.8603 17.0043C97.9404 25.4695 103.557 37.1657 103.557 50.0832C103.557 64.3811 97.9426 75.3672 90.465 83.6517C75.6578 100.057 53.8605 105.934 53.3795 105.934Z" fill="#56C1E6"/>
<path fill-rule="evenodd" clip-rule="evenodd" d="M80.8511 55.3091V49.6383V48.255V48.254V46.8717V41.2429V39.8596V38.4764V31.4653V30.082H79.3673H63.5252H62.0417H62.0406H60.5568H46.1995H44.7158H44.7147H43.231H27.389H25.9053V31.4653V38.4764V39.8596V41.2429V46.8717V48.254V48.255V49.6383V55.3081L23.2956 55.6036L21.6748 55.7875L22.0262 57.2735L23.9491 65.3972C24.9561 66.3031 26.1592 67.064 27.5047 67.6324L25.2636 58.1654L53.375 54.9905V68.782H53.3771C57.4833 68.782 61.116 67.179 63.4213 64.715C65.7161 67.179 69.3552 68.782 73.4571 68.782C75.5472 68.782 77.5141 68.3615 79.2473 67.6273L79.2463 67.6333C79.2732 67.6223 79.2968 67.6084 79.3235 67.5974C79.5623 67.4946 79.7938 67.3826 80.0219 67.2688C80.0981 67.231 80.1773 67.197 80.2523 67.158C80.5415 67.0061 80.8232 66.8463 81.0954 66.6765L81.0964 66.6736C81.7114 66.2911 82.2834 65.8646 82.8019 65.3982L84.7249 57.2735L85.0762 55.7875L83.4554 55.6036L80.8511 55.3091ZM43.2332 53.3524L28.8749 54.9735V49.6383H43.2332V53.3524ZM43.2332 38.4784H28.8749V32.8495H43.2332V38.4784ZM60.5579 53.0168L53.5528 52.226L53.3793 52.2069L53.2057 52.226L46.2016 53.0168V49.6393H60.5589V53.0168H60.5579ZM60.5579 46.8727H46.2006V41.2449H60.5579V46.8727ZM60.5579 38.4784H46.2006V32.8495H60.5579V38.4784ZM77.8836 54.9745L63.5252 53.3524V49.6383H77.8836V54.9745ZM77.8836 46.8727H63.5252V41.2449H77.8836V46.8727Z" fill="#56C1E6"/>
<path fill-rule="evenodd" clip-rule="evenodd" d="M58.3788 93.0311C56.8736 93.6413 55.1746 93.9869 53.3791 93.9869V93.9809C51.5719 93.9809 49.875 93.6383 48.3795 93.0311C46.8283 92.4019 45.486 91.491 44.4575 90.3884L42.2207 92.1921C43.5394 93.6053 45.2428 94.7659 47.1978 95.5589C49.0683 96.3169 51.1691 96.7464 53.3802 96.7464V96.7404C55.6009 96.7404 57.7006 96.3139 59.5625 95.5579C61.5176 94.7649 63.2208 93.6043 64.5376 92.1921L62.3007 90.3884C61.2712 91.492 59.931 92.4019 58.3788 93.0311Z" fill="#56C1E6"/>
<path fill-rule="evenodd" clip-rule="evenodd" d="M78.4622 74.6006C76.9666 75.2058 75.2688 75.5484 73.4604 75.5484C71.6531 75.5484 69.9563 75.2058 68.4607 74.6006C66.9105 73.9714 65.5704 73.0625 64.5441 71.9619L63.428 70.7644L62.3126 71.9569C61.2778 73.0645 59.9344 73.9754 58.3875 74.6026H58.3821C56.8865 75.2088 55.1898 75.5504 53.3814 75.5504C51.5741 75.5504 49.8794 75.2078 48.384 74.6026C46.8305 73.9734 45.486 73.0625 44.4502 71.9569L43.3328 70.7634L42.2198 71.9569C41.186 73.0635 39.8448 73.9754 38.2978 74.6016C36.8023 75.2068 35.1054 75.5494 33.2982 75.5494C31.4888 75.5494 29.7908 75.2078 28.2953 74.6036L28.2964 74.6016C26.7505 73.9754 25.4082 73.0645 24.3755 71.9569L22.1387 73.7726C23.451 75.1789 25.1543 76.3354 27.1158 77.1304H27.1212C28.9927 77.8884 31.0913 78.3159 33.2992 78.3159C35.5104 78.3159 37.609 77.8874 39.4805 77.1304C40.9257 76.5441 42.2305 75.7621 43.3425 74.8283C44.4576 75.7641 45.7615 76.5471 47.2022 77.1314C49.0717 77.8894 51.1692 78.3169 53.3804 78.3169C55.5926 78.3169 57.6922 77.8894 59.5626 77.1314L59.5606 77.1304C61.0046 76.5451 62.3095 75.7631 63.4226 74.8283C64.5346 75.7651 65.8372 76.5481 67.2769 77.1304C69.1474 77.8884 71.2482 78.3169 73.4594 78.3169C75.6716 78.3169 77.7722 77.8884 79.6427 77.1314C81.6042 76.3364 83.3066 75.1799 84.6198 73.7736L82.3832 71.9579C81.3504 73.0635 80.008 73.9744 78.4622 74.6006Z" fill="#56C1E6"/>
<path fill-rule="evenodd" clip-rule="evenodd" d="M68.4217 83.8152C66.9253 84.4225 65.2273 84.765 63.4222 84.765C61.6149 84.765 59.9169 84.4215 58.4192 83.8142C56.868 83.185 55.5258 82.2752 54.4985 81.1726L53.38 79.9741L52.2616 81.1726C51.2331 82.2752 49.8919 83.186 48.3407 83.8142C46.8441 84.4215 45.1472 84.765 43.341 84.765C41.5338 84.765 39.8369 84.4225 38.3414 83.8152C36.7902 83.186 35.4479 82.2752 34.4194 81.1726L32.1826 82.9763C33.5014 84.3895 35.2036 85.55 37.1598 86.343C39.0313 87.1011 41.131 87.5305 43.3421 87.5305C45.5532 87.5305 47.6519 87.1021 49.5234 86.343C50.9642 85.7588 52.2691 84.9748 53.3821 84.038C54.4951 84.9748 55.7988 85.7578 57.2408 86.343C59.1135 87.1021 61.2142 87.5305 63.4253 87.5305C65.6365 87.5305 67.7361 87.1021 69.6066 86.343C71.5617 85.55 73.2661 84.3885 74.5839 82.9763L72.347 81.1726C71.3153 82.2752 69.9719 83.187 68.4217 83.8152Z" fill="#56C1E6"/>
<path fill-rule="evenodd" clip-rule="evenodd" d="M38.1737 24.6135H39.9617V12.5818H38.1737L36.3965 13.8202V15.6549L38.1737 14.4005V24.6135Z" fill="#56C1E6"/>
<path fill-rule="evenodd" clip-rule="evenodd" d="M43.1992 21.1027C43.2099 22.1853 43.5902 23.0492 44.3433 23.6994C45.06 24.3656 45.9535 24.7021 47.0205 24.7141C48.0928 24.7031 49.0002 24.3656 49.7394 23.6984C50.4689 23.0492 50.8374 22.1823 50.8492 21.0997C50.8374 19.9382 50.3286 19.0363 49.3259 18.3911C49.7094 18.0755 50.0222 17.717 50.2632 17.3095C50.4935 16.931 50.6082 16.4796 50.6082 15.9582C50.5964 14.9555 50.2568 14.1286 49.5883 13.4724C48.9241 12.8242 48.066 12.4946 47.0205 12.4836C45.991 12.4946 45.15 12.8242 44.4955 13.4724C43.8045 14.1286 43.4499 14.9575 43.4403 15.9592C43.4403 16.4816 43.5688 16.933 43.8216 17.3125C44.038 17.719 44.3401 18.0795 44.7247 18.3932C43.7199 19.0393 43.2099 19.9412 43.1992 21.1027ZM45.7874 14.6229C46.1442 14.3403 46.5545 14.1995 47.0205 14.1995C47.5015 14.1995 47.9214 14.3403 48.2781 14.6229C48.6306 14.9145 48.8116 15.349 48.8223 15.9233C48.8116 16.4816 48.6306 16.908 48.2781 17.2017C47.9225 17.5043 47.5025 17.6571 47.0205 17.6571C46.5545 17.6571 46.1442 17.5043 45.7874 17.2017C45.4243 16.908 45.2379 16.4806 45.2271 15.9233C45.2379 15.349 45.4243 14.9145 45.7874 14.6229ZM45.6096 19.7135C45.9963 19.3659 46.4677 19.1861 47.0205 19.1752C47.5893 19.1861 48.0671 19.3659 48.456 19.7135C48.8491 20.066 49.0505 20.5224 49.0623 21.0867C49.0495 21.638 48.8491 22.0885 48.456 22.443C48.0671 22.8135 47.5893 22.9973 47.0205 22.9973C46.4677 22.9973 45.9963 22.8135 45.6096 22.443C45.2046 22.0885 45.0011 21.638 44.9861 21.0867C45 20.5234 45.2046 20.066 45.6096 19.7135Z" fill="#56C1E6"/>
<path fill-rule="evenodd" clip-rule="evenodd" d="M56.2313 20.3876C56.9705 20.3986 57.7675 20.2758 58.6224 20.0161L58.6213 21.1497C58.586 22.3701 57.9989 22.9853 56.858 22.9963C56.0502 22.9963 55.5071 22.6607 55.2264 21.9866H53.3774C53.567 22.8595 53.988 23.5246 54.6405 23.988C55.2864 24.4604 56.0235 24.7012 56.8537 24.7131C57.8264 24.7021 58.6524 24.3995 59.3337 23.8043C60.0247 23.205 60.3825 22.3521 60.4061 21.2465V15.9402C60.3836 14.8287 60.0258 13.9728 59.3337 13.3745C58.6513 12.7793 57.8264 12.4836 56.8537 12.4836C55.9078 12.4836 55.0968 12.7793 54.4166 13.3725C53.6892 13.9708 53.3196 14.8247 53.3099 15.9343V17.0419C53.2981 18.1984 53.5788 19.0453 54.1509 19.5786C54.7251 20.1309 55.4182 20.3986 56.2313 20.3876ZM55.0968 16.0441C55.1193 14.8347 55.7053 14.2214 56.8548 14.2005C57.9978 14.2214 58.5849 14.8347 58.6224 16.0441L58.6213 17.0269C58.586 18.2473 57.9989 18.8606 56.8548 18.8705C55.7053 18.8606 55.1193 18.2473 55.0968 17.0269V16.0441Z" fill="#56C1E6"/>
<path fill-rule="evenodd" clip-rule="evenodd" d="M65.0417 14.2976H68.3541L64.1343 24.6125H66.129L70.3627 14.2976V12.5818H63.2559V16.0414H65.0417V14.2976Z" fill="#56C1E6"/>
<path fill-rule="evenodd" clip-rule="evenodd" d="M151.26 20.6211C151.041 20.0149 150.712 19.4756 150.272 18.9912C149.831 18.5078 149.35 18.1133 148.834 17.8097C148.31 17.5021 147.743 17.2934 147.131 17.1755C147.64 16.9808 148.106 16.6921 148.519 16.3226C148.932 15.9511 149.266 15.4916 149.512 14.9553C149.764 14.413 149.89 13.7978 149.894 13.1047C149.889 12.0081 149.612 11.0802 149.063 10.3192C148.513 9.55818 147.743 8.97791 146.751 8.58341C145.756 8.18192 144.589 7.98218 143.239 7.98218H132.909V28.4711H143.959C145.123 28.4711 146.168 28.3393 147.095 28.0717C148.022 27.809 148.825 27.4026 149.518 26.8622C150.899 25.7796 151.589 24.3734 151.589 22.6466C151.59 21.9035 151.482 21.2324 151.26 20.6211ZM137.431 11.4977H142.517C143.47 11.5027 144.208 11.7025 144.732 12.1009C145.261 12.4974 145.528 13.0587 145.533 13.7798C145.528 14.4889 145.261 15.0332 144.732 15.4187C144.208 15.8043 143.47 15.999 142.517 16.006H137.431V11.4977ZM145.033 24.5382C145.567 24.3344 145.976 24.0358 146.257 23.6413C146.548 23.2448 146.693 22.7584 146.693 22.1812C146.693 21.6059 146.548 21.1195 146.257 20.713C145.974 20.3145 145.567 20.0109 145.033 19.8022C144.498 19.5954 143.861 19.4896 143.113 19.4896H137.43V24.8458H143.113C143.862 24.8458 144.498 24.7419 145.033 24.5382Z" fill="#56C1E6"/>
<path d="M166.252 17.3227V28.4746H170.681V13.8701H157.15L157.054 18.1727C157.049 18.7759 157.034 19.3142 157.019 19.7926C156.997 20.265 156.971 20.6945 156.933 21.084C156.898 21.4695 156.845 21.835 156.788 22.1806C156.724 22.5231 156.646 22.8637 156.551 23.2073C156.379 23.8604 156.128 24.3388 155.792 24.6354C155.453 24.9381 155.03 25.0859 154.51 25.0789C154.339 25.0789 154.175 25.0699 154.018 25.0549C153.867 25.0359 153.726 25.006 153.601 24.963V28.3288C153.772 28.4157 153.998 28.4816 154.281 28.5235C154.558 28.5685 154.888 28.5914 155.265 28.5914C156.296 28.5585 157.165 28.3727 157.87 28.0351C158.578 27.6996 159.152 27.2322 159.598 26.6309C160.041 26.0317 160.386 25.3186 160.632 24.4936C160.804 23.9134 160.94 23.3621 161.035 22.8357C161.128 22.3094 161.196 21.7631 161.244 21.2058C161.287 20.6495 161.328 20.0383 161.354 19.3721L161.418 17.3217H166.252V17.3227Z" fill="#56C1E6"/>
<path fill-rule="evenodd" clip-rule="evenodd" d="M189.927 25.285C190.115 25.285 190.289 25.2711 190.44 25.2401C190.595 25.2121 190.727 25.1682 190.837 25.1113V28.1264C190.554 28.3302 190.215 28.483 189.822 28.5839C189.423 28.6877 188.968 28.7416 188.451 28.7416C187.555 28.7416 186.819 28.5839 186.232 28.2763C185.64 27.9636 185.202 27.4962 184.902 26.867C184.212 27.5242 183.416 28.0216 182.522 28.3532C181.623 28.6907 180.618 28.8555 179.502 28.8555C178.361 28.8505 177.36 28.6468 176.499 28.2473C175.635 27.8458 174.955 27.2795 174.469 26.5494C173.983 25.8214 173.736 24.9575 173.726 23.9687C173.726 23.1917 173.877 22.5056 174.174 21.9093C174.479 21.3111 174.934 20.8087 175.547 20.3972C176.158 19.9888 176.829 19.6802 177.549 19.4764C178.276 19.2697 179.063 19.1688 179.909 19.1688C180.789 19.1688 181.607 19.2417 182.36 19.3915C183.114 19.5363 183.804 19.767 184.431 20.0747V19.6352C184.431 18.7144 184.086 18.0233 183.396 17.5658C182.705 17.1124 181.668 16.8827 180.287 16.8827C179.456 16.8827 178.64 16.9866 177.844 17.1903C177.053 17.3951 176.285 17.7017 175.547 18.1131V14.6585C176.347 14.264 177.227 13.9704 178.194 13.7756C179.156 13.5849 180.209 13.489 181.355 13.489C182.469 13.489 183.48 13.6129 184.386 13.8645C185.29 14.1152 186.082 14.4977 186.757 15.0101C188.138 16.0338 188.827 17.439 188.827 19.2257V24.1715C188.827 24.538 188.924 24.8146 189.105 25.0004C189.295 25.1912 189.567 25.285 189.927 25.285ZM182.931 25.295C183.522 25.0463 184.024 24.6698 184.432 24.1725H184.433V22.7103C183.977 22.4307 183.481 22.2219 182.942 22.0761C182.402 21.9353 181.811 21.8604 181.168 21.8604C180.534 21.8604 179.989 21.9403 179.536 22.0861C179.076 22.2359 178.72 22.4526 178.468 22.7343C178.222 23.0229 178.095 23.3635 178.093 23.765C178.095 24.1924 178.216 24.549 178.453 24.8286C178.688 25.1103 179.018 25.319 179.436 25.4598C179.853 25.5986 180.336 25.6666 180.886 25.6666C181.654 25.6666 182.334 25.5437 182.931 25.295Z" fill="#56C1E6"/>
<path fill-rule="evenodd" clip-rule="evenodd" d="M209.518 13.8701V25.023H212.096V32.1949H207.92V28.4746H196.618V32.1949H192.378V25.023H194.388C194.982 24.1591 195.437 23.0365 195.752 21.6552C196.064 20.274 196.239 18.6261 196.269 16.7095L196.332 13.8701H209.518ZM198.905 25.023H205.185V17.3227H200.288C200.288 18.8448 200.173 20.251 199.938 21.5334C199.707 22.8228 199.362 23.9823 198.905 25.023Z" fill="#56C1E6"/>
<path d="M219.285 28.4746L226.38 19.8705V28.4746H230.744V13.8701H226.6L219.504 22.4752V13.8701H215.142V28.4746H219.285Z" fill="#56C1E6"/>
<path fill-rule="evenodd" clip-rule="evenodd" d="M249.275 22.1424C248.771 21.5132 248.028 21.0388 247.04 20.7172C247.683 20.4096 248.164 20.0011 248.479 19.4848C248.799 18.9734 248.954 18.3482 248.954 17.6151C248.954 16.899 248.761 16.2548 248.377 15.6946C247.997 15.1333 247.43 14.6898 246.681 14.3652C245.938 14.0387 245.019 13.8749 243.931 13.8699H235.077V28.4743H244.306C245.525 28.4694 246.556 28.3056 247.41 27.984C248.256 27.6554 248.906 27.197 249.352 26.5957C249.795 26.0015 250.014 25.2904 250.021 24.4654C250.023 23.5426 249.771 22.7666 249.275 22.1424ZM239.44 16.7083H242.518C243.223 16.7083 243.752 16.8301 244.097 17.0768C244.448 17.3255 244.621 17.701 244.621 18.1994C244.621 18.6978 244.448 19.0683 244.097 19.317C243.752 19.5706 243.223 19.6925 242.518 19.6925H239.44V16.7083ZM243.209 25.576C243.977 25.576 244.555 25.4392 244.93 25.1625C245.312 24.8879 245.502 24.4794 245.502 23.9361C245.502 23.3958 245.312 22.9853 244.93 22.7127C244.554 22.436 243.977 22.2972 243.209 22.2972H239.44V25.576H243.209Z" fill="#56C1E6"/>
<path fill-rule="evenodd" clip-rule="evenodd" d="M264.569 14.0383C265.61 14.4098 266.536 14.9661 267.352 15.7132C268.985 17.2043 269.801 19.02 269.8 21.1563C269.8 22.2549 269.597 23.2606 269.189 24.1715C268.781 25.0843 268.169 25.9132 267.352 26.6603C266.536 27.3904 265.61 27.9377 264.569 28.3042C263.534 28.6678 262.375 28.8535 261.106 28.8535C259.834 28.8535 258.678 28.6678 257.64 28.3042C256.6 27.9377 255.673 27.3904 254.857 26.6603C254.041 25.9142 253.429 25.0853 253.021 24.1715C252.613 23.2606 252.409 22.2549 252.409 21.1563C252.409 18.991 253.224 17.1763 254.857 15.7132C255.673 14.9661 256.6 14.4098 257.64 14.0383C258.677 13.6748 259.833 13.489 261.106 13.489C262.375 13.489 263.534 13.6738 264.569 14.0383ZM264.215 24.0856C264.623 23.6911 264.93 23.2496 265.134 22.7633C265.337 22.2789 265.438 21.7435 265.439 21.1573C265.439 19.9878 265.031 19.02 264.215 18.259C263.807 17.8645 263.345 17.5708 262.826 17.3761C262.31 17.1813 261.734 17.0894 261.106 17.0894C260.478 17.0894 259.906 17.1813 259.387 17.3761C258.871 17.5708 258.405 17.8645 257.997 18.259C257.181 19.02 256.773 19.9878 256.773 21.1573C256.773 21.7435 256.871 22.2799 257.075 22.7633C257.279 23.2496 257.589 23.6911 257.997 24.0856C258.405 24.4801 258.871 24.7737 259.387 24.9684C259.907 25.1592 260.479 25.2551 261.106 25.2551C261.733 25.2551 262.31 25.1582 262.826 24.9684C263.346 24.7737 263.807 24.4801 264.215 24.0856Z" fill="#56C1E6"/>
<path d="M280.538 28.854C281.465 28.854 282.339 28.7672 283.161 28.5864C283.982 28.4106 284.763 28.138 285.501 27.7714V24.2579C284.889 24.5964 284.229 24.8451 283.521 25.0089C282.816 25.1707 282.063 25.2536 281.262 25.2536C280.587 25.2536 279.959 25.1617 279.383 24.972C278.803 24.7822 278.279 24.4926 277.808 24.1121C277.336 23.7316 276.982 23.2921 276.745 22.7997C276.51 22.3014 276.395 21.7571 276.395 21.1558C276.395 20.5566 276.51 20.0093 276.745 19.5169C276.976 19.0235 277.321 18.5961 277.776 18.2295C278.717 17.4685 279.882 17.088 281.262 17.088C281.907 17.088 282.564 17.1609 283.228 17.3067C283.898 17.4525 284.574 17.6732 285.249 17.9669V14.4533C284.559 14.1317 283.826 13.887 283.057 13.7252C282.281 13.5655 281.465 13.4875 280.602 13.4875C279.425 13.4875 278.332 13.6613 277.327 14.0139C276.317 14.3634 275.39 14.8918 274.544 15.5949C273.71 16.283 273.082 17.088 272.665 18.0088C272.239 18.9316 272.029 19.9693 272.029 21.1279C272.029 22.2834 272.238 23.3281 272.665 24.2699C273.082 25.2067 273.71 26.0306 274.544 26.7477C275.375 27.4498 276.292 27.9762 277.295 28.3287C278.294 28.6803 279.377 28.854 280.538 28.854Z" fill="#56C1E6"/>
<path d="M296.897 28.4746V17.3227H301.86V13.8701H287.575V17.3227H292.472V28.4746H296.897Z" fill="#56C1E6"/>
<path fill-rule="evenodd" clip-rule="evenodd" d="M315.59 14.0383C316.63 14.4098 317.557 14.9661 318.373 15.7132C320.006 17.2043 320.822 19.02 320.821 21.1563C320.821 22.2549 320.617 23.2606 320.209 24.1715C319.801 25.0843 319.189 25.9132 318.373 26.6603C317.557 27.3904 316.63 27.9377 315.59 28.3042C314.555 28.6678 313.396 28.8535 312.126 28.8535C310.854 28.8535 309.698 28.6678 308.66 28.3042C307.62 27.9377 306.693 27.3904 305.877 26.6603C305.06 25.9142 304.449 25.0853 304.04 24.1715C303.632 23.2606 303.429 22.2549 303.429 21.1563C303.429 18.991 304.244 17.1763 305.877 15.7132C306.693 14.9661 307.62 14.4098 308.66 14.0383C309.698 13.6748 310.854 13.489 312.126 13.489C313.396 13.489 314.554 13.6738 315.59 14.0383ZM315.235 24.0856C315.643 23.6911 315.951 23.2496 316.154 22.7633C316.358 22.2789 316.459 21.7435 316.46 21.1573C316.46 19.9878 316.052 19.02 315.235 18.259C314.827 17.8645 314.365 17.5708 313.847 17.3761C313.328 17.1813 312.753 17.0894 312.126 17.0894C311.496 17.0894 310.928 17.1813 310.408 17.3761C309.892 17.5708 309.426 17.8645 309.018 18.259C308.201 19.02 307.793 19.9878 307.793 21.1573C307.793 21.7435 307.892 22.2799 308.095 22.7633C308.3 23.2496 308.609 23.6911 309.018 24.0856C309.426 24.4801 309.892 24.7737 310.408 24.9684C310.928 25.1592 311.496 25.2551 312.126 25.2551C312.753 25.2551 313.328 25.1582 313.847 24.9684C314.366 24.7737 314.827 24.4801 315.235 24.0856Z" fill="#56C1E6"/>
<path d="M328.515 28.4746V22.1816L334.702 28.4746H340.415L332.536 20.4548L339.349 13.8701H333.916L328.515 19.1964V13.8701H324.09V28.4746H328.515Z" fill="#56C1E6"/>
<path d="M350.37 28.854C351.294 28.854 352.168 28.7672 352.989 28.5864C353.813 28.4106 354.59 28.138 355.329 27.7714V24.2579C354.717 24.5964 354.057 24.8451 353.351 25.0089C352.643 25.1707 351.89 25.2536 351.089 25.2536C350.415 25.2536 349.787 25.1617 349.213 24.972C348.631 24.7822 348.107 24.4926 347.636 24.1121C347.164 23.7316 346.81 23.2921 346.573 22.7997C346.338 22.3014 346.223 21.7571 346.223 21.1558C346.223 20.5566 346.338 20.0093 346.573 19.5169C346.804 19.0235 347.149 18.5961 347.606 18.2295C348.547 17.4685 349.709 17.088 351.089 17.088C351.734 17.088 352.394 17.1609 353.056 17.3067C353.727 17.4525 354.402 17.6732 355.077 17.9669V14.4533C354.387 14.1317 353.653 13.887 352.885 13.7252C352.109 13.5655 351.293 13.4875 350.432 13.4875C349.253 13.4875 348.159 13.6613 347.155 14.0139C346.144 14.3634 345.22 14.8918 344.371 15.5949C343.54 16.283 342.91 17.088 342.492 18.0088C342.069 18.9316 341.86 19.9693 341.86 21.1279C341.86 22.2834 342.069 23.3281 342.492 24.2699C342.91 25.2067 343.54 26.0306 344.371 26.7477C345.203 27.4498 346.12 27.9762 347.125 28.3287C348.123 28.6803 349.206 28.854 350.37 28.854Z" fill="#56C1E6"/>
<path d="M363.524 28.4746V22.1816L369.711 28.4746H375.423L367.544 20.4548L374.358 13.8701H368.924L363.524 19.1964V13.8701H359.098V28.4746H363.524Z" fill="#56C1E6"/>
<path d="M382.047 28.4746L389.145 19.8705V28.4746H393.509V13.8701H389.365L382.269 22.4752V13.8701H377.903V28.4746H382.047Z" fill="#56C1E6"/>
<path d="M401.987 28.4746L409.08 19.8705V28.4746H413.445V13.8701H409.301L402.205 22.4752V13.8701H397.84V28.4746H401.987Z" fill="#56C1E6"/>
<path d="M405.625 12.2581C406.427 12.2581 407.165 12.1452 407.834 11.9265C408.509 11.7008 409.111 11.3652 409.646 10.9118C410.181 10.4563 410.583 9.93003 410.85 9.3198C411.122 8.71656 411.264 8.02844 411.279 7.25342H407.918C407.908 7.68088 407.804 8.0564 407.616 8.37799C407.427 8.69459 407.159 8.94427 406.82 9.12005C406.475 9.29583 406.067 9.38271 405.595 9.38971C405.124 9.38271 404.712 9.29583 404.367 9.12005C404.02 8.94427 403.747 8.69459 403.561 8.37799C403.372 8.0564 403.274 7.68088 403.274 7.25342H399.944C399.967 8.28211 400.216 9.16999 400.7 9.91604C401.186 10.6631 401.848 11.2384 402.698 11.6419C403.543 12.0493 404.518 12.2541 405.625 12.2581Z" fill="#56C1E6"/>
<path d="M136.834 62.3028V53.2872L140.696 57.8245H142.454L146.348 53.2872V62.3028H150.522V47.6953H146.16L141.575 53.1394L137.023 47.6953H132.657V62.3028H136.834Z" fill="#56C1E6"/>
<path fill-rule="evenodd" clip-rule="evenodd" d="M165.981 47.8675C167.023 48.238 167.947 48.7923 168.764 49.5393C170.4 51.0324 171.215 52.8481 171.214 54.9854C171.214 56.082 171.007 57.0878 170.602 57.9986C170.194 58.9115 169.581 59.7404 168.763 60.4875C167.946 61.2175 167.022 61.7648 165.979 62.1314C164.945 62.4979 163.789 62.6837 162.516 62.6837C161.243 62.6837 160.087 62.4979 159.053 62.1314C158.009 61.7648 157.085 61.2175 156.266 60.4875C155.45 59.7414 154.84 58.9125 154.43 57.9986C154.022 57.0868 153.818 56.082 153.818 54.9854C153.818 52.8172 154.635 51.0025 156.267 49.5393C157.087 48.7933 158.01 48.239 159.054 47.8675C160.089 47.5019 161.246 47.3162 162.517 47.3162C163.789 47.3162 164.945 47.5009 165.981 47.8675ZM165.625 57.9117C166.033 57.5172 166.341 57.0778 166.547 56.5894C166.752 56.105 166.85 55.5697 166.849 54.9854C166.849 53.8139 166.441 52.8491 165.625 52.0881C165.217 51.6916 164.755 51.4 164.237 51.2052C163.72 51.0105 163.143 50.9166 162.516 50.9166C161.889 50.9166 161.317 51.0105 160.801 51.2052C160.282 51.4 159.816 51.6916 159.408 52.0881C158.592 52.8481 158.184 53.8139 158.184 54.9854C158.184 55.5697 158.282 56.106 158.486 56.5894C158.691 57.0778 159 57.5172 159.408 57.9117C159.816 58.3062 160.281 58.5999 160.801 58.7946C161.317 58.9844 161.889 59.0832 162.516 59.0832C163.143 59.0832 163.72 58.9854 164.237 58.7946C164.756 58.5999 165.217 58.3062 165.625 57.9117Z" fill="#56C1E6"/>
<path fill-rule="evenodd" clip-rule="evenodd" d="M189.331 49.5393C190.036 50.2724 190.566 51.0924 190.911 52.0032C191.261 52.9121 191.434 53.9168 191.437 55.0144C191.437 56.097 191.263 57.0928 190.913 58.0036C190.568 58.9125 190.039 59.7414 189.334 60.4884C187.951 61.9506 186.193 62.6837 184.059 62.6837C182.942 62.6837 181.96 62.5029 181.106 62.1364C180.252 61.7748 179.522 61.2345 178.907 60.5164V68.1577H174.481V47.6967H178.907V49.4814C179.489 48.7643 180.212 48.222 181.068 47.8605C181.932 47.4969 182.926 47.3162 184.058 47.3162C185.126 47.3162 186.097 47.5009 186.977 47.8675C187.855 48.238 188.642 48.7923 189.331 49.5393ZM185.846 57.9107C186.239 57.5162 186.539 57.0778 186.735 56.5934C186.938 56.112 187.039 55.5837 187.039 55.0124C187.039 54.4271 186.938 53.8898 186.735 53.4084C186.539 52.9201 186.239 52.4806 185.846 52.0861C185.452 51.6896 184.999 51.398 184.49 51.2032C183.976 51.0085 183.412 50.9146 182.8 50.9146C182.217 50.9196 181.682 51.0135 181.182 51.2032C180.686 51.394 180.241 51.6517 179.855 51.9832C179.467 52.3098 179.148 52.6854 178.906 53.1108V56.915C179.147 57.3404 179.467 57.711 179.855 58.0375C180.241 58.3591 180.686 58.6128 181.182 58.7986C181.686 58.9834 182.226 59.0752 182.8 59.0822C183.413 59.0822 183.976 58.9844 184.49 58.7936C184.999 58.5988 185.452 58.3052 185.846 57.9107Z" fill="#56C1E6"/>
<path d="M202.172 62.6825C203.099 62.6825 203.971 62.5936 204.795 62.4128C205.616 62.2391 206.394 61.9644 207.132 61.5999V58.0863C206.52 58.4219 205.861 58.6706 205.155 58.8374C204.446 58.9972 203.693 59.0811 202.892 59.0811C202.219 59.0811 201.589 58.9872 201.015 58.7974C200.434 58.6077 199.91 58.321 199.438 57.9375C198.967 57.56 198.612 57.1176 198.378 56.6272C198.141 56.1298 198.027 55.5825 198.027 54.9833C198.027 54.382 198.141 53.8347 198.378 53.3444C198.607 52.851 198.952 52.4215 199.408 52.055C200.35 51.294 201.511 50.9134 202.892 50.9134C203.537 50.9134 204.197 50.9864 204.859 51.1342C205.532 51.28 206.204 51.4987 206.879 51.7913V48.2778C206.189 47.9562 205.457 47.7115 204.688 47.5517C203.912 47.3899 203.098 47.312 202.234 47.312C201.056 47.312 199.962 47.4878 198.957 47.8383C197.947 48.1909 197.023 48.7162 196.174 49.4193C195.343 50.1075 194.713 50.9124 194.295 51.8353C193.872 52.7561 193.663 53.7958 193.663 54.9513C193.663 56.1088 193.872 57.1515 194.295 58.0933C194.713 59.0301 195.343 59.8541 196.174 60.5712C197.005 61.2733 197.922 61.8016 198.927 62.1522C199.926 62.5067 201.011 62.6825 202.172 62.6825Z" fill="#56C1E6"/>
<path d="M215.326 62.3028V56.0088L221.513 62.3028H227.228L219.346 54.283L226.16 47.6953H220.726L215.326 53.0215V47.6953H210.899V62.3028H215.326Z" fill="#56C1E6"/>
<path fill-rule="evenodd" clip-rule="evenodd" d="M240.833 47.8675C241.873 48.238 242.8 48.7923 243.616 49.5393C245.248 51.0324 246.064 52.8481 246.065 54.9854C246.065 56.082 245.86 57.0878 245.452 57.9986C245.044 58.9115 244.432 59.7404 243.616 60.4875C242.8 61.2175 241.873 61.7648 240.833 62.1314C239.795 62.4979 238.639 62.6837 237.369 62.6837C236.098 62.6837 234.942 62.4979 233.904 62.1314C232.864 61.7648 231.937 61.2175 231.121 60.4875C230.304 59.7414 229.693 58.9125 229.285 57.9986C228.876 57.0868 228.673 56.082 228.673 54.9854C228.673 52.8172 229.488 51.0025 231.121 49.5393C231.937 48.7933 232.864 48.239 233.904 47.8675C234.941 47.5019 236.098 47.3162 237.369 47.3162C238.639 47.3162 239.795 47.5009 240.833 47.8675ZM240.477 57.9117C240.885 57.5172 241.193 57.0778 241.396 56.5894C241.601 56.105 241.702 55.5697 241.702 54.9854C241.702 53.8139 241.293 52.8491 240.477 52.0881C240.069 51.6916 239.607 51.4 239.089 51.2052C238.572 51.0105 237.996 50.9166 237.368 50.9166C236.738 50.9166 236.169 51.0105 235.65 51.2052C235.134 51.4 234.668 51.6916 234.26 52.0881C233.443 52.8481 233.035 53.8139 233.035 54.9854C233.035 55.5697 233.133 56.106 233.337 56.5894C233.542 57.0778 233.851 57.5172 234.26 57.9117C234.668 58.3062 235.134 58.5999 235.65 58.7946C236.17 58.9844 236.738 59.0832 237.368 59.0832C237.996 59.0832 238.572 58.9854 239.089 58.7946C239.608 58.5999 240.069 58.3062 240.477 57.9117Z" fill="#56C1E6"/>
<path d="M253.476 62.3028L260.571 53.6957V62.3028H264.936V47.6953H260.79L253.694 56.2994V47.6953H249.332V62.3028H253.476Z" fill="#56C1E6"/>
<path d="M257.118 46.0852C257.92 46.0852 258.658 45.9743 259.327 45.7536C260.002 45.5279 260.602 45.1923 261.139 44.7389C261.67 44.2855 262.073 43.7602 262.341 43.1489C262.613 42.5427 262.754 41.8546 262.769 41.0806H259.412C259.402 41.51 259.296 41.8855 259.108 42.2081C258.919 42.5247 258.651 42.7744 258.314 42.9502C257.967 43.124 257.559 43.2129 257.087 43.2178C256.619 43.2129 256.203 43.124 255.859 42.9502C255.514 42.7744 255.241 42.5247 255.053 42.2081C254.867 41.8865 254.766 41.511 254.766 41.0806H251.438C251.459 42.1093 251.711 42.9971 252.192 43.7432C252.678 44.4902 253.343 45.0655 254.189 45.472C255.035 45.8765 256.007 46.0802 257.118 46.0852Z" fill="#56C1E6"/>
<path d="M140.288 96.1275V84.9756H145.247V81.521H130.963V84.9756H135.862V96.1275H140.288Z" fill="#56C1E6"/>
<path fill-rule="evenodd" clip-rule="evenodd" d="M158.981 81.6942C160.021 82.0647 160.947 82.621 161.764 83.368C163.396 84.8591 164.213 86.6748 164.212 88.8111C164.212 89.9077 164.008 90.9125 163.6 91.8263C163.192 92.7371 162.58 93.5691 161.764 94.3132C160.947 95.0462 160.021 95.5925 158.981 95.9571C157.944 96.3236 156.787 96.5094 155.515 96.5094C154.243 96.5094 153.087 96.3236 152.051 95.9571C151.011 95.5925 150.085 95.0462 149.268 94.3132C148.452 93.5691 147.84 92.7371 147.432 91.8263C147.024 90.9125 146.819 89.9077 146.819 88.8111C146.819 86.6459 147.636 84.8312 149.268 83.368C150.085 82.622 151.011 82.0647 152.051 81.6942C153.086 81.3276 154.243 81.1418 155.515 81.1418C156.787 81.1418 157.942 81.3276 158.981 81.6942ZM158.623 91.7384C159.031 91.3439 159.34 90.9045 159.545 90.4161C159.749 89.9347 159.849 89.3964 159.849 88.8121C159.849 87.6406 159.439 86.6758 158.623 85.9148C158.215 85.5203 157.754 85.2267 157.238 85.0319C156.719 84.8372 156.145 84.7433 155.515 84.7433C154.888 84.7433 154.318 84.8372 153.8 85.0319C153.281 85.2267 152.815 85.5203 152.407 85.9148C151.591 86.6748 151.183 87.6406 151.183 88.8121C151.183 89.3964 151.284 89.9347 151.488 90.4161C151.692 90.9045 151.999 91.3439 152.407 91.7384C152.815 92.1349 153.281 92.4255 153.8 92.6233C154.318 92.8111 154.888 92.9099 155.515 92.9099C156.144 92.9099 156.719 92.8111 157.238 92.6233C157.754 92.4265 158.215 92.1349 158.623 91.7384Z" fill="#56C1E6"/>
<path fill-rule="evenodd" clip-rule="evenodd" d="M182.33 83.368C183.038 84.0991 183.564 84.918 183.909 85.8319C184.261 86.7378 184.433 87.7435 184.435 88.8401C184.435 89.9257 184.263 90.9184 183.911 91.8323C183.566 92.7381 183.04 93.5701 182.332 94.3141C180.951 95.7793 179.193 96.5094 177.057 96.5094C175.943 96.5094 174.958 96.3286 174.104 95.962C173.253 95.6025 172.52 95.0602 171.907 94.3441V101.983H167.479V81.5224H171.907V83.3091C172.486 82.591 173.209 82.0507 174.068 81.6892C174.932 81.3226 175.924 81.1418 177.056 81.1418C178.123 81.1418 179.095 81.3276 179.975 81.6941C180.853 82.0647 181.64 82.621 182.33 83.368ZM178.845 91.7374C179.236 91.3429 179.535 90.9035 179.734 90.4201C179.939 89.9387 180.037 89.4103 180.036 88.8381C180.036 88.2528 179.937 87.7175 179.734 87.2341C179.535 86.7457 179.236 86.3063 178.845 85.9118C178.452 85.5173 177.996 85.2237 177.49 85.0289C176.975 84.8342 176.412 84.7403 175.797 84.7403C175.217 84.7453 174.679 84.8392 174.183 85.0289C173.683 85.2197 173.24 85.4773 172.852 85.8089C172.464 86.1355 172.144 86.511 171.905 86.9365V90.7437C172.144 91.1671 172.464 91.5377 172.852 91.8642C173.241 92.1878 173.683 92.4415 174.183 92.6273C174.684 92.81 175.223 92.9039 175.797 92.9089C176.412 92.9089 176.975 92.81 177.49 92.6223C177.996 92.4255 178.452 92.1339 178.845 91.7374Z" fill="#56C1E6"/>
<path d="M192.125 96.1275V84.9756H200.132V81.521H187.698V96.1275H192.125Z" fill="#56C1E6"/>
<path fill-rule="evenodd" clip-rule="evenodd" d="M214.02 81.6942C215.06 82.0647 215.986 82.621 216.803 83.368C218.434 84.8591 219.251 86.6748 219.25 88.8111C219.25 89.9077 219.046 90.9125 218.638 91.8263C218.23 92.7371 217.618 93.5691 216.802 94.3132C215.985 95.0462 215.059 95.5925 214.018 95.9571C212.984 96.3236 211.825 96.5094 210.555 96.5094C209.283 96.5094 208.128 96.3236 207.089 95.9571C206.049 95.5925 205.123 95.0462 204.306 94.3132C203.49 93.5691 202.878 92.7371 202.47 91.8263C202.062 90.9125 201.858 89.9077 201.858 88.8111C201.858 86.6459 202.675 84.8312 204.307 83.368C205.124 82.622 206.05 82.0647 207.091 81.6942C208.128 81.3276 209.283 81.1418 210.556 81.1418C211.826 81.1418 212.984 81.3276 214.02 81.6942ZM213.664 91.7384C214.072 91.3439 214.38 90.9045 214.583 90.4161C214.788 89.9347 214.888 89.3964 214.888 88.8121C214.888 87.6406 214.48 86.6758 213.664 85.9148C213.256 85.5203 212.794 85.2267 212.276 85.0319C211.757 84.8372 211.182 84.7433 210.555 84.7433C209.925 84.7433 209.355 84.8372 208.837 85.0319C208.32 85.2267 207.854 85.5203 207.446 85.9148C206.63 86.6748 206.222 87.6406 206.222 88.8121C206.222 89.3964 206.32 89.9347 206.524 90.4161C206.728 90.9045 207.038 91.3439 207.446 91.7384C207.854 92.1349 208.32 92.4255 208.837 92.6233C209.356 92.8111 209.925 92.9099 210.555 92.9099C211.182 92.9099 211.757 92.8111 212.276 92.6233C212.795 92.4265 213.256 92.1349 213.664 91.7384Z" fill="#56C1E6"/>
<path fill-rule="evenodd" clip-rule="evenodd" d="M236.715 89.7965C236.212 89.1673 235.468 88.6929 234.482 88.3713C235.124 88.0637 235.605 87.6552 235.92 87.1359C236.241 86.6235 236.396 85.9993 236.396 85.2693C236.396 84.5512 236.202 83.907 235.82 83.3457C235.439 82.7844 234.875 82.341 234.124 82.0184C233.383 81.6918 232.461 81.525 231.373 81.521H222.519V96.1275H231.751C232.968 96.1225 234.001 95.9557 234.851 95.6341C235.7 95.3075 236.348 94.8501 236.793 94.2488C237.237 93.6546 237.459 92.9435 237.463 92.1166C237.463 91.1967 237.211 90.4187 236.715 89.7965ZM226.881 84.3604H229.959C230.663 84.3604 231.193 84.4822 231.538 84.7309C231.888 84.9796 232.062 85.3561 232.062 85.8535C232.062 86.3509 231.888 86.7224 231.538 86.9711C231.193 87.2247 230.663 87.3466 229.959 87.3466H226.881V84.3604ZM230.65 93.2301C231.418 93.2301 231.994 93.0933 232.372 92.8167C232.752 92.542 232.942 92.1335 232.941 91.5912C232.941 91.0509 232.752 90.6404 232.372 90.3678C231.995 90.0881 231.418 89.9523 230.65 89.9523H226.881V93.2301H230.65Z" fill="#56C1E6"/>
<path d="M256.866 81.521H261.232V96.1275H256.866V81.521Z" fill="#56C1E6"/>
<path fill-rule="evenodd" clip-rule="evenodd" d="M251.936 86.4338C252.9 86.8542 253.646 87.4485 254.175 88.2205C254.704 88.9865 254.976 89.8974 254.982 90.946C254.982 91.6931 254.846 92.3742 254.579 92.9894C254.308 93.6097 253.9 94.166 253.35 94.6643C252.801 95.1477 252.141 95.5113 251.373 95.7559C250.601 96.0056 249.725 96.1275 248.735 96.1275H240.886V81.521H245.311V85.7946H248.515C249.828 85.7996 250.969 86.0163 251.936 86.4338ZM247.822 92.9365C248.691 92.9315 249.362 92.7577 249.837 92.4102C250.309 92.0656 250.551 91.5673 250.555 90.9171C250.551 90.2689 250.309 89.7655 249.837 89.409C249.362 89.0544 248.691 88.8737 247.822 88.8687H245.311V92.9365H247.822Z" fill="#56C1E6"/>
<path d="M269.708 96.1275L276.803 87.5234V96.1275H281.169V81.521H277.023L269.927 90.1281V81.521H265.564V96.1275H269.708Z" fill="#56C1E6"/>
<path d="M273.351 79.9129C274.152 79.9129 274.891 79.8 275.56 79.5793C276.235 79.3566 276.835 79.02 277.368 78.5646C277.902 78.1112 278.306 77.5858 278.573 76.9746C278.845 76.3714 278.986 75.6833 279.003 74.9062H275.643C275.633 75.3357 275.527 75.7122 275.337 76.0338C275.151 76.3504 274.884 76.6001 274.543 76.7759C274.196 76.9517 273.788 77.0386 273.317 77.0435C272.849 77.0386 272.433 76.9517 272.088 76.7759C271.743 76.6001 271.471 76.3504 271.282 76.0338C271.094 75.7122 270.995 75.3367 270.995 74.9062H267.668C267.688 75.9369 267.94 76.8248 268.421 77.5719C268.907 78.3159 269.573 78.8942 270.421 79.2977C271.267 79.7022 272.24 79.9089 273.351 79.9129Z" fill="#56C1E6"/>
<path d="M297.966 96.1275V84.9756H304.215V96.1275H308.641V81.521H293.54V96.1275H297.966Z" fill="#56C1E6"/>
<path fill-rule="evenodd" clip-rule="evenodd" d="M324.098 81.6942C325.139 82.0647 326.065 82.621 326.882 83.368C328.514 84.8591 329.331 86.6748 329.329 88.8111C329.329 89.9077 329.126 90.9125 328.718 91.8263C328.31 92.7371 327.698 93.5691 326.882 94.3132C326.065 95.0462 325.139 95.5925 324.098 95.9571C323.064 96.3236 321.908 96.5094 320.635 96.5094C319.363 96.5094 318.208 96.3236 317.169 95.9571C316.129 95.5925 315.203 95.0462 314.386 94.3132C313.57 93.5691 312.958 92.7371 312.55 91.8263C312.142 90.9125 311.938 89.9077 311.938 88.8111C311.938 86.6459 312.754 84.8312 314.386 83.368C315.203 82.622 316.129 82.0647 317.169 81.6942C318.206 81.3276 319.363 81.1418 320.635 81.1418C321.907 81.1418 323.064 81.3276 324.098 81.6942ZM323.744 91.7384C324.152 91.3439 324.459 90.9045 324.663 90.4161C324.867 89.9347 324.967 89.3964 324.968 88.8121C324.968 87.6406 324.56 86.6758 323.744 85.9148C323.337 85.5203 322.875 85.2267 322.357 85.0319C321.838 84.8372 321.264 84.7433 320.636 84.7433C320.006 84.7433 319.437 84.8372 318.918 85.0319C318.398 85.2267 317.935 85.5203 317.527 85.9148C316.711 86.6748 316.303 87.6406 316.303 88.8121C316.303 89.3964 316.401 89.9347 316.605 90.4161C316.81 90.9045 317.119 91.3439 317.527 91.7384C317.935 92.1349 318.399 92.4255 318.918 92.6233C319.437 92.8111 320.006 92.9099 320.636 92.9099C321.263 92.9099 321.838 92.8111 322.357 92.6233C322.875 92.4265 323.336 92.1349 323.744 91.7384Z" fill="#56C1E6"/>
<path fill-rule="evenodd" clip-rule="evenodd" d="M342.176 81.1418C341.044 81.1418 340.05 81.3226 339.186 81.6892C338.33 82.0507 337.607 82.591 337.025 83.3091V81.5224H332.6V101.983H337.025V94.3441C337.637 95.0602 338.371 95.6025 339.224 95.962C340.078 96.3286 341.061 96.5094 342.177 96.5094C344.311 96.5094 346.069 95.7763 347.452 94.3131C348.157 93.5661 348.686 92.7371 349.031 91.8313C349.381 90.9174 349.555 89.9247 349.555 88.8391C349.555 87.7425 349.381 86.7378 349.031 85.8309C348.686 84.9171 348.157 84.0981 347.452 83.365C346.759 82.621 345.976 82.0637 345.097 81.6931C344.215 81.3276 343.241 81.1418 342.176 81.1418ZM340.918 84.7423C341.53 84.7423 342.094 84.8361 342.609 85.0309C343.115 85.2257 343.571 85.5193 343.964 85.9138C344.357 86.3083 344.654 86.7477 344.853 87.2361C345.056 87.7175 345.158 88.2558 345.158 88.8401C345.158 89.4103 345.057 89.9387 344.853 90.4201C344.654 90.9035 344.357 91.3429 343.964 91.7374C343.571 92.1339 343.115 92.4255 342.609 92.6203C342.094 92.81 341.531 92.9089 340.918 92.9089C340.344 92.9039 339.802 92.81 339.3 92.6253C338.804 92.4395 338.359 92.1888 337.97 91.8642C337.584 91.5377 337.265 91.1671 337.023 90.7437V86.9375C337.265 86.512 337.584 86.1365 337.97 85.8099C338.358 85.4783 338.803 85.2207 339.3 85.0299C339.797 84.8411 340.336 84.7473 340.918 84.7423ZM360.447 84.977V96.1288H356.02V84.977H351.123V81.5224H365.407V84.977H360.447Z" fill="#56C1E6"/>
</svg>
