<svg width="160" height="32" viewBox="0 0 160 32" fill="none" xmlns="http://www.w3.org/2000/svg">
<path d="M39.8606 1.06787L28.3877 30.8404H36.3058L37.9847 26.1617H50.0899L51.7688 30.8404H59.6869L48.1829 1.06787H39.8606ZM40.2856 19.7721L43.2807 11.1646C43.6435 10.2035 43.8922 9.16846 44.0477 8.144C44.2031 9.16846 44.4415 10.2035 44.8146 11.1646L47.8098 19.7721H40.2856Z" fill="#181D27"/>
<path d="M149.957 15.3469L140.941 1.06787H130.691L140.111 15.3469L130.079 30.8404H139.075L145.014 20.8599L150.942 30.8404H160L149.957 15.3469Z" fill="#181D27"/>
<path d="M103.744 1.06787H92.1885V30.8721H99.8993V21.5147H103.724C110.937 21.483 116.451 19.149 116.451 11.2913C116.44 3.43362 110.958 1.06787 103.744 1.06787ZM104.117 14.6921H99.8889V7.8694H104.107C106.46 7.8694 108.543 8.58758 108.543 11.2702C108.543 13.9422 106.47 14.6921 104.117 14.6921Z" fill="#181D27"/>
<path d="M150.258 0.881348H159.192V9.98526H150.258V0.881348Z" fill="#FF8800"/>
<path d="M19.0599 24.5139C18.4174 24.6723 17.7437 24.7357 17.0701 24.7357C13.7329 24.7357 8.41613 23.331 8.41613 15.9803C8.41613 9.86524 12.883 7.37275 17.5883 7.37275C20.5213 7.37275 23.4646 8.21766 25.6618 9.7385V2.29272C22.791 1.07816 19.7336 0.423359 16.614 0.423359C8.44722 0.412797 0.498047 4.83802 0.498047 15.938C0.498047 26.7529 8.38504 31.4633 16.7073 31.4633C20.0445 31.4316 23.3092 30.7768 26.3976 29.4672V14.47H19.0599V24.5139Z" fill="#181D27"/>
<path d="M81.2027 20.0252C84.4155 18.7156 86.7992 16.033 86.7992 11.0797C86.7992 3.22203 80.7466 1.04639 74.8081 1.04639H62.4854V30.8189H70.2272V21.1553H73.5644L80.5394 30.8506H89.2555L81.2027 20.0252ZM75.1501 14.7551H70.2272V7.86904H75.119C77.3265 7.86904 78.8189 9.02023 78.8189 11.3332C78.8189 13.6356 77.3576 14.7551 75.1501 14.7551Z" fill="#181D27"/>
<path d="M120.047 30.8404H127.789V1.06787H120.047V30.8404Z" fill="#181D27"/>
</svg>
