<svg width="580" height="115" viewBox="0 0 580 115" fill="none" xmlns="http://www.w3.org/2000/svg">
<g clip-path="url(#clip0_2_6065)">
<path d="M144.495 3.83643L102.905 110.832H131.608L137.695 94.0175H181.576L187.662 110.832H216.365L174.663 3.83643H144.495ZM146.035 71.0547L156.893 40.1214C158.207 36.6675 159.109 32.9479 159.673 29.2663C160.236 32.9479 161.1 36.6675 162.453 40.1214L173.31 71.0547H146.035Z" fill="white"/>
<path d="M543.595 55.1516L510.91 3.83643H473.754L507.904 55.1516L471.537 110.832H504.147L525.675 74.9641L547.164 110.832H580L543.595 55.1516Z" fill="white"/>
<path d="M376.073 3.83643H334.184V110.945H362.135V77.3173H375.998C402.147 77.2034 422.133 68.8154 422.133 40.5769C422.096 12.3383 402.222 3.83643 376.073 3.83643ZM377.426 52.7984H362.098V28.2794H377.388C385.917 28.2794 393.468 30.8604 393.468 40.5009C393.468 50.1035 385.954 52.7984 377.426 52.7984Z" fill="white"/>
<path d="M544.685 3.1665H577.07V35.8837H544.685V3.1665Z" fill="#FF8800"/>
<path d="M69.0935 88.0964C66.7642 88.6657 64.3222 88.8935 61.8802 88.8935C49.7828 88.8935 30.5097 83.8455 30.5097 57.4288C30.5097 35.4528 46.7021 26.4954 63.7586 26.4954C74.3908 26.4954 85.0605 29.5318 93.0252 34.9974V8.23909C82.6185 3.87427 71.5355 1.52106 60.2271 1.52106C30.6224 1.48311 1.80664 17.3863 1.80664 57.277C1.80664 96.1429 30.397 113.071 60.5652 113.071C72.6626 112.957 84.497 110.604 95.6927 105.897V52.0012H69.0935V88.0964Z" fill="white"/>
<path d="M294.36 71.9659C306.007 67.2594 314.647 57.6189 314.647 39.818C314.647 11.5795 292.707 3.76074 271.18 3.76074H226.51V110.756H254.574V76.0271H266.671L291.956 110.87H323.551L294.36 71.9659ZM272.42 53.0263H254.574V28.2797H272.307C280.309 28.2797 285.719 32.4168 285.719 40.7289C285.719 49.0031 280.422 53.0263 272.42 53.0263Z" fill="white"/>
<path d="M435.17 110.832H463.234V3.83643H435.17V110.832Z" fill="white"/>
</g>
<defs>
<clipPath id="clip0_2_6065">
<rect width="580" height="115" fill="white"/>
</clipPath>
</defs>
</svg>
