<svg width="415" height="198" viewBox="0 0 415 198" fill="none" xmlns="http://www.w3.org/2000/svg">
<g clip-path="url(#clip0_1_2247)">
<g clip-path="url(#clip1_1_2247)">
<path d="M0 163.053H45.8114C67.5344 163.053 85.1444 146.609 85.1444 126.325L39.333 126.325C17.61 126.325 0 142.769 0 163.053Z" fill="#24D7FF"/>
<path d="M0 71.9257L0 126.325C21.2932 126.325 37.842 110.264 37.842 89.5976L37.842 34.5063C16.5488 34.5063 0 51.2595 0 71.9257Z" fill="#1966DB"/>
<path d="M132.447 34.5063L86.6359 34.5063C64.9129 34.5063 47.3029 50.9498 47.3029 71.2339H93.1142C114.837 71.2339 132.447 54.7904 132.447 34.5063Z" fill="#F9983F"/>
<path d="M132.447 125.888V71.2339C111.547 71.2339 94.6047 87.8731 94.6047 108.399L94.6047 163.053C115.504 163.053 132.447 146.413 132.447 125.888Z" fill="#30B54B"/>
</g>
<path d="M198.463 158.768H177.38V122.062H198.463V125.853H181.778V137.678H197.454V141.444H181.778V154.951H198.463V158.768Z" fill="white"/>
<path d="M238.766 155.077H238.534C236.55 157.872 233.584 159.27 229.635 159.27C225.927 159.27 223.038 158.04 220.969 155.579C218.917 153.119 217.891 149.62 217.891 145.085C217.891 140.549 218.925 137.025 220.995 134.515C223.064 132.004 225.944 130.749 229.635 130.749C233.481 130.749 236.43 132.104 238.482 134.816H238.818L238.637 132.832L238.534 130.899V119.702H242.828V158.768H239.336L238.766 155.077ZM230.178 155.78C233.11 155.78 235.231 155.01 236.542 153.47C237.87 151.914 238.534 149.411 238.534 145.963V145.085C238.534 141.185 237.861 138.406 236.516 136.749C235.188 135.075 233.058 134.238 230.126 134.238C227.608 134.238 225.677 135.192 224.332 137.101C223.004 138.992 222.34 141.67 222.34 145.135C222.34 148.65 223.004 151.303 224.332 153.094C225.66 154.885 227.608 155.78 230.178 155.78Z" fill="white"/>
<path d="M277.492 158.768H273.094V125.853H261.117V122.062H289.469V125.853H277.492V158.768Z" fill="white"/>
<path d="M319.761 159.27C315.57 159.27 312.259 158.031 309.827 155.554C307.413 153.077 306.206 149.637 306.206 145.235C306.206 140.8 307.327 137.276 309.569 134.665C311.828 132.054 314.854 130.749 318.648 130.749C322.201 130.749 325.012 131.887 327.082 134.163C329.151 136.423 330.186 139.41 330.186 143.126V145.762H310.655C310.741 148.993 311.578 151.445 313.164 153.119C314.768 154.792 317.019 155.629 319.916 155.629C322.968 155.629 325.986 155.01 328.97 153.771V157.487C327.452 158.123 326.012 158.575 324.65 158.843C323.305 159.128 321.675 159.27 319.761 159.27ZM318.597 134.238C316.32 134.238 314.501 134.958 313.138 136.398C311.793 137.837 311 139.829 310.759 142.373H325.581C325.581 139.745 324.978 137.737 323.77 136.347C322.563 134.941 320.839 134.238 318.597 134.238Z" fill="white"/>
<path d="M362.108 159.27C358.003 159.27 354.821 158.048 352.562 155.604C350.32 153.144 349.199 149.671 349.199 145.185C349.199 140.582 350.337 137.025 352.614 134.515C354.907 132.004 358.167 130.749 362.392 130.749C363.754 130.749 365.117 130.891 366.479 131.175C367.842 131.46 368.911 131.795 369.687 132.18L368.368 135.72C367.419 135.352 366.384 135.05 365.263 134.816C364.143 134.565 363.151 134.439 362.289 134.439C356.529 134.439 353.649 138.004 353.649 145.135C353.649 148.516 354.347 151.11 355.744 152.918C357.158 154.726 359.245 155.629 362.004 155.629C364.367 155.629 366.79 155.136 369.273 154.148V157.839C367.376 158.793 364.988 159.27 362.108 159.27Z" fill="white"/>
<path d="M408.671 158.768V140.967C408.671 138.724 408.145 137.05 407.093 135.946C406.041 134.841 404.394 134.289 402.152 134.289C399.168 134.289 396.987 135.075 395.607 136.649C394.245 138.222 393.564 140.8 393.564 144.382V158.768H389.269V119.702H393.564V131.527C393.564 132.95 393.495 134.13 393.357 135.067H393.615C394.46 133.745 395.659 132.707 397.211 131.954C398.78 131.184 400.565 130.799 402.566 130.799C406.032 130.799 408.628 131.602 410.352 133.209C412.094 134.799 412.965 137.335 412.965 140.816V158.768H408.671Z" fill="white"/>
<path d="M176.596 94.4946V34.5063H186.9V94.4946H176.596Z" fill="white"/>
<path d="M203.085 94.4946V34.5063H212.923V86.0831H238.404V94.4946H203.085Z" fill="white"/>
<path d="M294.66 94.4946L288.365 77.9039H264.264L258.099 94.4946H247.234L270.818 34.5063H282.027L305.611 94.4946H294.66ZM285.649 69.4859L279.742 53.222C279.311 52.1323 278.707 50.416 277.931 48.0732C277.184 45.7303 276.667 44.014 276.379 42.9243C275.603 46.2752 274.468 49.9393 272.973 53.9167L267.282 69.4859H285.649Z" fill="white"/>
</g>
<defs>
<clipPath id="clip0_1_2247">
<rect width="415" height="197.104" fill="white" transform="translate(0 0.227295)"/>
</clipPath>
<clipPath id="clip1_1_2247">
<rect width="132.447" height="128.546" fill="white" transform="translate(0 34.5063)"/>
</clipPath>
</defs>
</svg>
