<svg width="200" height="177" viewBox="0 0 200 177" fill="none" xmlns="http://www.w3.org/2000/svg">
<path d="M156.816 48.8044C181.38 58.1257 198.826 81.758 198.826 109.436C198.826 145.271 169.588 174.318 133.517 174.318C115.428 174.318 99.0565 167.011 87.229 155.206L107.417 118.23C111.104 129.032 121.399 136.808 133.517 136.808C148.734 136.808 161.069 124.553 161.069 109.436C161.069 95.9214 151.208 84.6916 138.246 82.4649L156.816 48.8044Z" fill="white"/>
<path d="M93.5938 46.8347C105.712 38.8502 120.509 35.4282 134.028 35.4282C141.156 35.4282 145.247 36.0419 152.143 37.838L171.914 1.97339H118.339L93.5938 46.8347Z" fill="white"/>
<path d="M147.371 46.213L126.808 83.4754C123.215 84.2658 121.187 85.1173 118.111 87.1255C113.916 89.863 113.202 91.476 109.427 96.5527L87.8293 135.788C81.7651 146.786 72.6608 159.938 51.9941 169.313C34.3967 177.301 16.4889 175.855 2.00928 171.405L21.9935 135.54C28.3908 136.736 32.605 136.27 38.5818 133.706C45.3931 130.788 49.0833 127.395 52.5375 120.876L79.223 73.1806C81.8783 69.598 91.7362 54.6699 112.639 48.1056C125.802 43.9735 136.844 44.1181 147.371 46.213Z" fill="white"/>
</svg>
